<svg xmlns="http://www.w3.org/2000/svg" xmlns:xlink="http://www.w3.org/1999/xlink" version="1.1" x="0px" y="0px" viewBox="0 0 53 66.25" enable-background="new 0 0 53 53" xml:space="preserve"><g><path d="M49.41217,19.50482c-0.01056-0.0069-0.01965-0.01569-0.0304-0.02222c-0.00378-0.00226-0.00641-0.00604-0.01019-0.00824   l-6.896-4.72754v-6.396c0-1.99463-1.62305-3.61719-3.61768-3.61719H14.14404c-1.99463,0-3.61768,1.62256-3.61768,3.61719v6.3913   L3.6709,19.44555C3.58608,19.5456,1.5,20.75903,1.5,23.55639v19.70996c0,2.80677,2.30141,5,5,5h40c2.7033,0,5-2.19737,5-5V23.55639   C51.5,20.78295,49.32243,19.40386,49.41217,19.50482z M35.24432,31.62121c1.38657-1.02172-5.02201,3.70056,13.5556-9.98871   C49.25067,22.15991,49.5,22.83258,49.5,23.55639v19.70996c0,0.49689-0.13293,0.95886-0.34766,1.37195L35.24432,31.62121z    M47.14111,20.36987l-4.66553,3.4325v-6.63092L47.14111,20.36987z M14.14404,6.73364h24.71387   c0.89209,0,1.61768,0.72559,1.61768,1.61719v16.92969l-12.18848,8.97852c-1.02578,0.74657-2.50846,0.77296-3.56445,0.00195   l-12.19629-8.97278V8.35083C12.52637,7.45923,13.25195,6.73364,14.14404,6.73364z M3.84766,44.63831   C3.63293,44.22522,3.5,43.76324,3.5,43.26636V23.55639c0-0.72382,0.24933-1.39655,0.70013-1.92401   c2.01053,1.48179-6.05909-4.46564,13.55475,9.99005L3.84766,44.63831z M10.52637,17.16797v6.63782l-4.66748-3.43591   L10.52637,17.16797z M6.5,46.26636c-0.4256,0-0.82916-0.0918-1.19623-0.25226l14.0896-13.18658l4.14569,3.04919   c1.79539,1.30672,4.1857,1.26297,5.93408-0.00488l4.13367-3.04456l14.08948,13.18689   c-0.36707,0.16046-0.77069,0.2522-1.19629,0.2522H6.5z"/><path d="M25.41388,25.93432c1.34717,0,2.47363-0.22119,3.57959-0.8042l-0.32178-0.86475   c-0.82422,0.4624-1.89014,0.7041-3.03662,0.7041c-2.97656,0-5.16846-2.07178-5.16846-5.43018   c0-4.08252,2.75488-6.67676,6.0332-6.67676c3.11719,0,4.8667,2.09131,4.8667,5.00732c0,2.33301-1.146,3.70068-2.17188,3.68066   c-0.66357-0.02051-0.90479-0.72412-0.60303-2.25244l0.68359-3.64014c-0.52295-0.2417-1.28711-0.42236-2.15186-0.42236   c-2.79541,0-4.7666,2.27246-4.7666,4.76611c0,1.58887,1.00586,2.53418,2.17236,2.53418c1.20654,0,2.13184-0.5835,2.83545-1.77002   h0.08057c-0.06055,1.22705,0.68359,1.77002,1.48828,1.77002c1.89014,0,3.57959-1.77002,3.57959-4.78662   c0-3.3584-2.35303-5.81201-5.85205-5.81201c-4.46484,0-7.34082,3.57959-7.34082,7.72266   C19.32013,23.52124,22.11554,25.93432,25.41388,25.93432z M27.46515,18.7146c-0.22119,1.24707-1.28711,2.73535-2.45361,2.73535   c-0.88477,0-1.32715-0.64355-1.32715-1.52881c0-1.95068,1.42773-3.61963,3.19775-3.61963c0.4624,0,0.8042,0.08008,1.00537,0.14063   L27.46515,18.7146z"/></g></svg>
