<svg xmlns="http://www.w3.org/2000/svg" xmlns:xlink="http://www.w3.org/1999/xlink" version="1.1" x="0px" y="0px" viewBox="0 0 500 625" enable-background="new 0 0 500 500" xml:space="preserve"><g><g><g><path d="M168.6,429.1c-0.2,11.4-7,21.7-17.8,25.9c-11.2,4.3-24.1,0.7-31.6-8.7c-15.4-19.4,2-48.8,26.5-44.4     C159,404.3,168.4,415.8,168.6,429.1c0.2,12.9,20.2,12.9,20,0c-0.4-20.2-12.8-38-31.8-44.9c-18.4-6.7-40.2-0.6-52.5,14.6     c-12.4,15.4-14.6,37.1-4.5,54.4c10.3,17.6,30.7,26.3,50.6,22.6c22.2-4.1,37.8-24.6,38.2-46.7     C188.9,416.3,168.9,416.3,168.6,429.1z"/></g></g><g><g><path d="M168.6,71c-0.2,11.4-7,21.7-17.8,25.9c-11.2,4.3-24.1,0.7-31.6-8.7c-15.4-19.4,2-48.8,26.5-44.4     C159,46.2,168.4,57.7,168.6,71c0.2,12.9,20.2,12.9,20,0c-0.4-20.2-12.8-38-31.8-44.9c-18.4-6.7-40.2-0.6-52.5,14.6     c-12.4,15.4-14.6,37.1-4.5,54.4c10.3,17.6,30.7,26.3,50.6,22.6c22.2-4.1,37.8-24.6,38.2-46.7C188.9,58.2,168.9,58.2,168.6,71z"/></g></g><g><g><path d="M130.3,109c0,31.9,0,63.9,0,95.8c0,50.9,0,101.7,0,152.6c0,11.6,0,23.2,0,34.7c0,12.9,20,12.9,20,0     c0-31.9,0-63.9,0-95.8c0-50.9,0-101.7,0-152.6c0-11.6,0-23.2,0-34.7C150.3,96.1,130.3,96.1,130.3,109L130.3,109z"/></g></g><g><g><path d="M386.5,147.4c-0.2,11.4-7,21.7-17.8,25.9c-11.2,4.3-24.1,0.7-31.6-8.7c-15.4-19.4,2-48.8,26.5-44.4     C376.9,122.5,386.3,134,386.5,147.4c0.2,12.9,20.2,12.9,20,0c-0.4-20.2-12.8-38-31.8-44.9c-18.4-6.7-40.2-0.6-52.5,14.6     c-12.4,15.4-14.6,37.1-4.5,54.4c10.3,17.6,30.7,26.3,50.6,22.6c22.2-4.1,37.8-24.6,38.2-46.7     C406.8,134.5,386.8,134.5,386.5,147.4z"/></g></g><g><g><path d="M147.4,358.6c6.6-6.7,13-13.6,20.5-19.3c9-6.9,19.1-12.6,29.7-16.7c11.2-4.4,22.5-8.7,33.8-13     c31.5-12.1,65.5-22,91.4-44.6c22.1-19.3,37.9-46,44.3-74.6c2.8-12.5-16.5-17.9-19.3-5.3c-5.3,23.9-17.6,45.6-35.5,62.4     c-12.5,11.7-27.2,20-43.1,26.1c-25.6,9.8-51.1,19.6-76.7,29.5c-12.1,4.7-23.7,10.6-34.1,18.4c-9.2,6.8-17.2,14.8-25.2,22.9     C124.2,353.6,138.4,367.8,147.4,358.6L147.4,358.6z"/></g></g></g></svg>
