<svg xmlns:dc="http://purl.org/dc/elements/1.1/" xmlns:cc="http://creativecommons.org/ns#" xmlns:rdf="http://www.w3.org/1999/02/22-rdf-syntax-ns#" xmlns:svg="http://www.w3.org/2000/svg" xmlns="http://www.w3.org/2000/svg" xmlns:sodipodi="http://sodipodi.sourceforge.net/DTD/sodipodi-0.dtd" xmlns:inkscape="http://www.inkscape.org/namespaces/inkscape" version="1.1" x="0px" y="0px" viewBox="0 0 100 125"><g transform="translate(0,-952.36218)"><path style="text-indent:0;text-transform:none;direction:ltr;block-progression:tb;baseline-shift:baseline;color:#000000;enable-background:accumulate;" d="M 19,8 C 12.936713,8 8,12.93671 8,19 8,25.06329 12.936713,30 19,30 25.063287,30 30,25.06329 30,19 30,12.93671 25.063287,8 19,8 z m 0,2 c 4.982407,0 9,4.01759 9,9 0,4.98241 -4.017593,9 -9,9 -4.982407,0 -9,-4.01759 -9,-9 0,-4.98241 4.017593,-9 9,-9 z m 52,24 c -7.309156,0 -11.706422,3.62493 -15,7.34375 L 56,37 c -5.2e-5,-0.523584 -0.476416,-0.999948 -1,-1 l -16,0 c -0.523584,5.2e-5 -0.999948,0.476416 -1,1 l 0,54 c 5.2e-5,0.523584 0.476416,0.999948 1,1 l 17,0 c 0.523584,-5.2e-5 0.999948,-0.476416 1,-1 l 0,-30 c 0,-2.7337 0.847765,-5.3008 2.15625,-7.125 C 60.464735,52.0508 62.16965,51 64,51 l 2,0 c 1.83035,0 3.535265,1.0508 4.84375,2.875 C 72.152235,55.6992 73,58.2663 73,61 l 0,30 c 5.2e-5,0.523584 0.476416,0.999948 1,1 l 17,0 c 0.523584,-5.2e-5 0.999948,-0.476416 1,-1 L 92,56 C 92,49.4611 90.745597,43.93992 87.40625,40.03125 84.066903,36.12258 78.716599,34 71,34 z M 10.8125,36 C 10.354098,36.087467 9.9917766,36.5334 10,37 l 0,54 c 5.2e-5,0.523584 0.476416,0.999948 1,1 l 17,0 c 0.523584,-5.2e-5 0.999948,-0.476416 1,-1 l 0,-54 c -5.2e-5,-0.523584 -0.476416,-0.999948 -1,-1 -5.723096,-4e-6 -11.478826,0 -17.1875,0 z M 71,36 c 7.35483,0 12.013454,1.95777 14.90625,5.34375 C 88.799046,44.72973 90,49.7174 90,56 l 0,34 -15,0 0,-29 C 75,57.8613 74.052265,54.8952 72.46875,52.6875 70.885235,50.4798 68.601649,49 66,49 l -2,0 c -2.601649,0 -4.885235,1.4798 -6.46875,3.6875 C 55.947735,54.8952 55,57.8613 55,61 l 0,13 c -0.719803,-2.05e-4 -1.483407,0 -2.1875,0 -0.523599,0.04909 -0.955337,0.570151 -0.90625,1.09375 C 51.955338,75.617349 52.476401,76.049087 53,76 l 2,0 0,6 c -0.719803,-2.05e-4 -1.483407,0 -2.1875,0 -0.523599,0.04909 -0.955337,0.570151 -0.90625,1.09375 C 51.955338,83.617349 52.476401,84.049087 53,84 l 2,0 0,6 -15,0 0,-52 14,0 0,6 c -4.08e-4,0.82264 1.26756,1.267541 1.78125,0.625 C 59.169586,40.40053 63.116114,36 71,36 z m -59,2 15,0 0,36 c -0.719803,-2.05e-4 -1.483407,0 -2.1875,0 -0.523599,0.04909 -0.955337,0.570151 -0.90625,1.09375 C 23.955338,75.617349 24.476401,76.049087 25,76 l 2,0 0,6 c -0.719803,-2.05e-4 -1.483407,0 -2.1875,0 -0.523599,0.04909 -0.955337,0.570151 -0.90625,1.09375 C 23.955338,83.617349 24.476401,84.049087 25,84 l 2,0 0,6 -15,0 z" transform="translate(0,952.36218)" fill="#000000" fill-opacity="1" stroke="none" marker="none" visibility="visible" display="inline" overflow="visible"/></g><text x="0" y="115" fill="#000000" font-size="5px" font-weight="bold" font-family="'Helvetica Neue', Helvetica, Arial-Unicode, Arial, Sans-serif">Created by rivda</text><text x="0" y="120" fill="#000000" font-size="5px" font-weight="bold" font-family="'Helvetica Neue', Helvetica, Arial-Unicode, Arial, Sans-serif">from the Noun Project</text></svg>